<?xml version="1.0" encoding="utf-8"?>
<!-- Generator: Adobe Illustrator 25.2.0, SVG Export Plug-In . SVG Version: 6.00 Build 0)  -->
<svg version="1.1" id="Capa_1" xmlns="http://www.w3.org/2000/svg" xmlns:xlink="http://www.w3.org/1999/xlink" x="0px" y="0px"
	 viewBox="0 0 512 512" style="enable-background:new 0 0 512 512;" xml:space="preserve">
<style type="text/css">
	.st0{fill:#1E499B;}
</style>
<g>
	<g>
		<path class="st0" d="M256,351.5c-57.9,0-105-47.2-105-105.1c0-0.8,0-1.6,0-2.4l-87.6-55.2c-35.6,28.2-57.6,54-59.5,56.4
			c-5.1,6.1-5.1,15.3,0,21.4c4.6,5.5,114.5,134,252.3,134c37.8,0,73.5-9.7,105.6-23.9l-58-36.5C289.2,347.4,273.1,351.5,256,351.5z"
			/>
		<path class="st0" d="M503.1,391.9l-79.6-50.2c50.2-34.6,82.3-72.2,84.7-75.1c5.1-6.1,5.1-15.3,0-21.4
			c-4.6-5.5-114.5-134-252.3-134c-50.3,0-96.9,17.1-136,39.3L27.6,92.4c-7.8-4.9-18.6-1.8-23.5,6S-0.8,119.1,7,124l475.3,299.5
			c3.6,2.2,7.6,2.9,11.5,2.3c4.6-0.7,10.3-4.9,12.9-9.1C511.9,408.9,510.9,396.7,503.1,391.9z M256,141.2c57.9,0,105,47.2,105,105.1
			c0,17.5-4.3,33.9-11.9,48.5L324,279c2.6-5.8,4.6-12,5.6-18.4c-30.2,9.7-58.7-13.1-58.7-42.7c0-15.1,7.5-28.4,18.9-36.5
			c-10.2-5.2-21.6-8.5-33.9-8.5c-23.1,0-43.8,10.5-57.6,27l-26.4-16.6C191.3,157.7,221.7,141.2,256,141.2z"/>
	</g>
</g>
</svg>
