<?xml version="1.0" encoding="utf-8"?>
<!-- Generator: Adobe Illustrator 25.2.0, SVG Export Plug-In . SVG Version: 6.00 Build 0)  -->
<svg version="1.1" id="Layer_1" xmlns="http://www.w3.org/2000/svg" xmlns:xlink="http://www.w3.org/1999/xlink" x="0px" y="0px"
	 viewBox="0 0 20 18" style="enable-background:new 0 0 20 18;" xml:space="preserve">
<style type="text/css">
	.st0{enable-background:new    ;}
	.st1{fill:#DF423B;}
	.st2{fill:#FFFFFF;}
</style>
<g class="st0">
	<path class="st1" d="M19.7,14.9L11.7,1c-0.4-0.6-1-1-1.7-1S8.7,0.4,8.3,1l-8,13.9c-0.4,0.6-0.4,1.4,0,2.1c0.3,0.6,1,1,1.7,1h16
		c0.7,0,1.4-0.4,1.7-1C20.1,16.3,20.1,15.5,19.7,14.9z"/>
	<path class="st2" d="M9.1,10.8c0,0.5,0.4,0.7,0.9,0.7c0.4,0,0.9-0.3,0.9-0.7c0-0.7,0-1.4,0.1-2.3c0-0.9,0-1.8,0-2.6
		c0-0.6-0.4-1-1-1s-1.1,0.4-1.1,1c0,0.7,0,1.7,0.1,2.5C9.1,9.4,9.1,10,9.1,10.8z"/>
	<path class="st2" d="M10,13.1c-0.6,0-1.1,0.5-1.1,1.1s0.5,1.1,1.1,1.1s1.1-0.5,1.1-1.1S10.6,13.1,10,13.1z"/>
</g>
</svg>
