<?xml version="1.0" encoding="utf-8"?>
<!-- Generator: Adobe Illustrator 25.2.0, SVG Export Plug-In . SVG Version: 6.00 Build 0)  -->
<svg version="1.1" id="Calque_1" xmlns="http://www.w3.org/2000/svg" xmlns:xlink="http://www.w3.org/1999/xlink" x="0px" y="0px"
	 viewBox="0 0 500 422" style="enable-background:new 0 0 500 422;" xml:space="preserve">
<style type="text/css">
	.st0{opacity:0.3;fill:#4A87FF;}
	.st1{fill:#4A87FF;}
	.st2{opacity:0.7;fill:#4A87FF;}
</style>
<path class="st0" d="M386.3,146L208.2,13.8c-4.2-3-9.8-3-13.9,0L16.2,146c-1.5,1.1-2.7,2.6-3.5,4.2l182.7,106.6
	c3.6,2.1,8,2.1,11.6,0l182.7-106.6C389,148.6,387.8,147.1,386.3,146z"/>
<path class="st1" d="M195.5,256.8L11.5,149.5l182.8,138.2c4.2,3.1,9.8,3.1,13.9,0l182.8-138.2l-184,107.3
	C203.5,258.8,199.1,258.8,195.5,256.8z"/>
<path class="st2" d="M193.9,163.3l-82.3,62.2l82.3,62.2c4.3,3.3,10.3,3.3,14.7,0l82.3-62.2l-82.3-62.2
	C204.2,160,198.2,160,193.9,163.3z"/>
<path class="st1" d="M402.6,213.9v-58.6c0-7.4-3.5-14.3-9.4-18.6L215.1,4.6c-8.1-6.1-19.5-6.1-27.6,0L9.3,136.8
	C3.4,141.2,0,147.9,0,155.3v190.1c0,12.7,10.4,23.1,23.2,23.1h283V422h137.5c31,0,56.3-25.3,56.3-56.4V213.9H402.6z M306.2,270.3
	v75.2h-283c-0.1,0-0.1-0.1-0.1-0.1l0-190.1c0,0,0,0,0.1-0.1L201.2,23c0,0,0.1,0,0.1,0l178.1,132.3l0.1,0.1c0,0,0,0,0,0v58.6h-17.1
	C331.4,213.9,306.2,239.2,306.2,270.3z M476.9,365.6c0,18.4-14.9,33.4-33.2,33.4H329.2V270.3c0-18.4,14.9-33.4,33.2-33.4h114.5
	V365.6z"/>
<g>
	<path class="st1" d="M416.2,293.4c0,0,1.1-28.9,28.9-28.9h14v-12.8h-14c-41.8,0-41.8,41.6-41.8,41.6v23.5c0,0-1.1,28.9-28.9,28.9
		h-13.9v12.9h14c12,0,20.6-3.5,26.7-8.5c-2.2,8.2-8.5,20.2-26.7,20.2h-29.7v14h29.7c33.2,0,39.9-26.4,41.4-37.2
		c12,11.6,29.2,11.6,29.2,11.6h13.9v-13.8h-13.9c0,0-28.9,0-28.9-27.8L416.2,293.4L416.2,293.4z"/>
	<path class="st1" d="M374.5,386.1H343v-17.7h31.5c13.1,0,19.7-6.5,23-13.6c-6.4,3.7-14.1,5.6-23,5.6h-15.8v-16.6h15.7
		c25.7,0,27-26.1,27.1-27.2l0-23.4c0-0.4,0.5-43.5,43.6-43.5h15.8v16.5h-15.8c-25.5,0-27,25.6-27.1,27.1V317c0,25.6,26,26,27.1,26
		h15.7v17.5h-15.7c-0.7,0-15.9-0.1-27.9-9.8C414.6,363.4,405.7,386.1,374.5,386.1z M346.6,382.4h27.8c30.1,0,37.7-22.3,39.6-35.7
		l0.5-3.6l2.6,2.5c11.3,10.9,27.8,11.1,27.9,11.1h12v-10.1h-12c-0.3,0-30.8-0.3-30.8-29.7l0-23.7c0-0.3,1.5-30.7,30.8-30.7h12.1
		v-9.1h-12.1c-39.4,0-39.9,38.2-39.9,39.8v23.5c0,0.4-1.5,30.8-30.8,30.8h-12v9.2h12.1c10.3,0,18.9-2.7,25.5-8.1l4.5-3.6l-1.5,5.5
		c-2.2,8-8.8,21.5-28.5,21.5h-27.8V382.4z"/>
</g>
</svg>
